<svg width="18" height="17" viewBox="0 0 18 17" fill="none" xmlns="http://www.w3.org/2000/svg">
<path d="M10.1719 15.8516C9.85938 16.1641 9.46875 16.3203 9 16.3203C8.53125 16.3203 8.1276 16.1641 7.78906 15.8516C7.47656 15.513 7.32031 15.1224 7.32031 14.6797H10.6406C10.6406 15.1484 10.4844 15.5391 10.1719 15.8516ZM14 7.17969V11.3203L15.6797 13V13.8203H2.32031V13L4 11.3203V7.17969C4 5.8776 4.32552 4.74479 4.97656 3.78125C5.65365 2.81771 6.57812 2.19271 7.75 1.90625V1.32031C7.75 0.981771 7.86719 0.695312 8.10156 0.460938C8.33594 0.200521 8.63542 0.0703125 9 0.0703125C9.36458 0.0703125 9.66406 0.200521 9.89844 0.460938C10.1328 0.695312 10.25 0.981771 10.25 1.32031V1.90625C11.4219 2.19271 12.3333 2.81771 12.9844 3.78125C13.6615 4.74479 14 5.8776 14 7.17969ZM15.6406 6.75C15.5885 5.8125 15.276 4.82292 14.7031 3.78125C14.1302 2.73958 13.4661 1.94531 12.7109 1.39844L13.8828 0.226562C16.0443 1.89323 17.1901 4.06771 17.3203 6.75H15.6406ZM5.32812 1.39844C4.57292 1.94531 3.89583 2.73958 3.29688 3.78125C2.72396 4.82292 2.41146 5.8125 2.35938 6.75H0.679688C0.809896 4.06771 1.95573 1.89323 4.11719 0.226562L5.32812 1.39844Z" fill="#908E8E"/>
</svg>
