<svg width="44" height="43" viewBox="0 0 44 43" fill="none" xmlns="http://www.w3.org/2000/svg">
<path d="M12.4234 3.84002L9.3251 0.741687C4.1251 4.70669 0.701771 10.8167 0.398438 17.75H4.73177C5.05677 12.0084 8.00344 6.98169 12.4234 3.84002ZM39.2684 17.75H43.6018C43.2768 10.8167 39.8534 4.70669 34.6751 0.741687L31.5984 3.84002C35.9751 6.98169 38.9434 12.0084 39.2684 17.75ZM35.0001 18.8334C35.0001 12.1817 31.4468 6.61335 25.2501 5.14002V3.66669C25.2501 1.86835 23.7984 0.416687 22.0001 0.416687C20.2018 0.416687 18.7501 1.86835 18.7501 3.66669V5.14002C12.5318 6.61335 9.0001 12.16 9.0001 18.8334V29.6667L4.66677 34V36.1667H39.3334V34L35.0001 29.6667V18.8334ZM22.0001 42.6667C22.3034 42.6667 22.5851 42.645 22.8668 42.58C24.2751 42.2767 25.4234 41.3234 25.9868 40.0234C26.2034 39.5034 26.3118 38.94 26.3118 38.3334H17.6451C17.6668 40.7167 19.5951 42.6667 22.0001 42.6667Z" fill="#1C1715"/>
</svg>
