<svg width="52" height="52" viewBox="0 0 52 52" fill="none" xmlns="http://www.w3.org/2000/svg">
<path d="M15.1668 17.3334C17.5601 17.3334 19.5002 15.3933 19.5002 13C19.5002 10.6068 17.5601 8.66669 15.1668 8.66669C12.7736 8.66669 10.8335 10.6068 10.8335 13C10.8335 15.3933 12.7736 17.3334 15.1668 17.3334Z" fill="#1C1715"/>
<path d="M24.1585 26C23.4868 25.5233 22.8802 25.0033 22.3818 24.44L19.3485 21.0817C18.9368 20.6267 18.4168 20.2583 17.8535 19.9983C17.2252 19.695 16.5102 19.5 15.7735 19.5H15.7085C13.0218 19.5 10.8335 21.6883 10.8335 24.375V26H4.3335V43.3333C4.3335 45.7167 6.2835 47.6667 8.66683 47.6667H43.3335C45.7168 47.6667 47.6668 45.7167 47.6668 43.3333V26H24.1585ZM15.1668 43.3333H10.8335V30.3333H15.1668V43.3333ZM23.8335 43.3333H19.5002V30.3333H23.8335V43.3333ZM32.5002 43.3333H28.1668V30.3333H32.5002V43.3333ZM41.1668 43.3333H36.8335V30.3333H41.1668V43.3333ZM40.4085 12.6967L40.2568 12.545C39.0218 11.2017 38.4802 9.49 38.8052 7.77833L39.0002 6.5H34.9052L34.7752 7.43167C34.3418 10.3783 35.3602 13.3033 37.5918 15.4917L37.7435 15.6217C38.9785 16.965 39.5202 18.6767 39.1952 20.3883L38.9568 21.6667H43.0952L43.2252 20.735C43.6802 17.7883 42.6402 14.8633 40.4085 12.6967ZM31.7418 12.6967L31.5902 12.545C30.3552 11.2017 29.8135 9.49 30.1385 7.77833L30.3335 6.5H26.2385L26.1085 7.43167C25.6752 10.3783 26.6935 13.3033 28.9252 15.4917L29.0768 15.6217C30.3118 16.965 30.8535 18.6767 30.5285 20.3883L30.2902 21.6667H34.4285L34.5585 20.735C35.0135 17.7883 33.9735 14.8633 31.7418 12.6967Z" fill="#1C1715"/>
</svg>
