<svg width="16" height="18" viewBox="0 0 16 18" fill="none" xmlns="http://www.w3.org/2000/svg">
<path d="M9.67969 11.6797V13.3203H3.82031V11.6797H9.67969ZM13.8203 15.8203V6.67969H2.17969V15.8203H13.8203ZM13.8203 2.5C14.263 2.5 14.6536 2.66927 14.9922 3.00781C15.3307 3.34635 15.5 3.73698 15.5 4.17969V15.8203C15.5 16.263 15.3307 16.6536 14.9922 16.9922C14.6536 17.3307 14.263 17.5 13.8203 17.5H2.17969C1.71094 17.5 1.30729 17.3438 0.96875 17.0312C0.65625 16.6927 0.5 16.2891 0.5 15.8203V4.17969C0.5 3.73698 0.65625 3.34635 0.96875 3.00781C1.30729 2.66927 1.71094 2.5 2.17969 2.5H3V0.820312H4.67969V2.5H11.3203V0.820312H13V2.5H13.8203ZM12.1797 8.32031V10H3.82031V8.32031H12.1797Z" fill="#908E8E"/>
</svg>
