<svg width="16" height="14" viewBox="0 0 16 14" fill="none" xmlns="http://www.w3.org/2000/svg">
<path d="M2.17969 5.17969H13.8203L12.5703 1.42969H3.42969L2.17969 5.17969ZM11.6719 8.96875C11.9323 9.20312 12.2318 9.32031 12.5703 9.32031C12.9089 9.32031 13.1953 9.20312 13.4297 8.96875C13.6901 8.70833 13.8203 8.40885 13.8203 8.07031C13.8203 7.73177 13.6901 7.44531 13.4297 7.21094C13.1953 6.95052 12.9089 6.82031 12.5703 6.82031C12.2318 6.82031 11.9323 6.95052 11.6719 7.21094C11.4375 7.44531 11.3203 7.73177 11.3203 8.07031C11.3203 8.40885 11.4375 8.70833 11.6719 8.96875ZM2.53125 8.96875C2.79167 9.20312 3.09115 9.32031 3.42969 9.32031C3.76823 9.32031 4.05469 9.20312 4.28906 8.96875C4.54948 8.70833 4.67969 8.40885 4.67969 8.07031C4.67969 7.73177 4.54948 7.44531 4.28906 7.21094C4.05469 6.95052 3.76823 6.82031 3.42969 6.82031C3.09115 6.82031 2.79167 6.95052 2.53125 7.21094C2.29688 7.44531 2.17969 7.73177 2.17969 8.07031C2.17969 8.40885 2.29688 8.70833 2.53125 8.96875ZM13.7812 1L15.5 6V12.6797C15.5 12.9141 15.4219 13.1094 15.2656 13.2656C15.1094 13.4219 14.9141 13.5 14.6797 13.5H13.8203C13.5859 13.5 13.3906 13.4219 13.2344 13.2656C13.0781 13.1094 13 12.9141 13 12.6797V11.8203H3V12.6797C3 12.9141 2.92188 13.1094 2.76562 13.2656C2.60938 13.4219 2.41406 13.5 2.17969 13.5H1.32031C1.08594 13.5 0.890625 13.4219 0.734375 13.2656C0.578125 13.1094 0.5 12.9141 0.5 12.6797V6L2.21875 1C2.375 0.453125 2.77865 0.179688 3.42969 0.179688H12.5703C13.2214 0.179688 13.625 0.453125 13.7812 1Z" fill="#908E8E"/>
</svg>
