<svg width="38" height="44" viewBox="0 0 38 44" fill="none" xmlns="http://www.w3.org/2000/svg">
<path d="M33.5833 10.4999H29.4167C29.4167 4.74992 24.75 0.083252 19 0.083252C13.25 0.083252 8.58333 4.74992 8.58333 10.4999H4.41667C2.125 10.4999 0.270833 12.3749 0.270833 14.6666L0.25 39.6666C0.25 41.9583 2.125 43.8333 4.41667 43.8333H33.5833C35.875 43.8333 37.75 41.9583 37.75 39.6666V14.6666C37.75 12.3749 35.875 10.4999 33.5833 10.4999ZM19 4.24992C22.4583 4.24992 25.25 7.04159 25.25 10.4999H12.75C12.75 7.04159 15.5417 4.24992 19 4.24992ZM19 25.0833C13.25 25.0833 8.58333 20.4166 8.58333 14.6666H12.75C12.75 18.1249 15.5417 20.9166 19 20.9166C22.4583 20.9166 25.25 18.1249 25.25 14.6666H29.4167C29.4167 20.4166 24.75 25.0833 19 25.0833Z" fill="#1C1715"/>
</svg>
