<svg width="46" height="46" viewBox="0 0 46 46" fill="none" xmlns="http://www.w3.org/2000/svg">
<path d="M23.0002 14.6666C18.396 14.6666 14.6668 18.3958 14.6668 22.9999C14.6668 27.6041 18.396 31.3333 23.0002 31.3333C27.6043 31.3333 31.3335 27.6041 31.3335 22.9999C31.3335 18.3958 27.6043 14.6666 23.0002 14.6666ZM41.6252 20.9166C40.6668 12.2291 33.771 5.33325 25.0835 4.37492V0.083252H20.9168V4.37492C12.2293 5.33325 5.3335 12.2291 4.37516 20.9166H0.0834961V25.0833H4.37516C5.3335 33.7708 12.2293 40.6666 20.9168 41.6249V45.9166H25.0835V41.6249C33.771 40.6666 40.6668 33.7708 41.6252 25.0833H45.9168V20.9166H41.6252ZM23.0002 37.5833C14.9377 37.5833 8.41683 31.0624 8.41683 22.9999C8.41683 14.9374 14.9377 8.41658 23.0002 8.41658C31.0627 8.41658 37.5835 14.9374 37.5835 22.9999C37.5835 31.0624 31.0627 37.5833 23.0002 37.5833Z" fill="#1C1715"/>
</svg>
