<svg width="17" height="16" viewBox="0 0 17 16" fill="none" xmlns="http://www.w3.org/2000/svg">
<path d="M10.3828 7.60938L9.17188 8.82031L14.9141 14.5625L13.7422 15.7344L8 9.99219L2.25781 15.7344L1.08594 14.5625L9.21094 6.4375C8.89844 5.8125 8.84635 5.08333 9.05469 4.25C9.28906 3.41667 9.73177 2.67448 10.3828 2.02344C11.1901 1.21615 12.0885 0.760417 13.0781 0.65625C14.0677 0.526042 14.862 0.760417 15.4609 1.35938C16.0599 1.95833 16.2943 2.76562 16.1641 3.78125C16.0599 4.77083 15.6042 5.66927 14.7969 6.47656C14.1458 7.1276 13.4036 7.55729 12.5703 7.76562C11.737 7.97396 11.0078 7.92188 10.3828 7.60938ZM4.75781 9.13281L1.24219 5.61719C0.591146 4.96615 0.265625 4.1849 0.265625 3.27344C0.265625 2.36198 0.591146 1.58073 1.24219 0.929688L7.10156 6.75L4.75781 9.13281Z" fill="#908E8E"/>
</svg>
