<svg width="20" height="14" viewBox="0 0 20 14" fill="none" xmlns="http://www.w3.org/2000/svg">
<path d="M3.32031 2V10.3203H16.6797V2H3.32031ZM16.6797 12H20V13.6797H0V12H3.32031C2.8776 12 2.48698 11.8307 2.14844 11.4922C1.83594 11.1536 1.67969 10.763 1.67969 10.3203V2C1.67969 1.55729 1.83594 1.16667 2.14844 0.828125C2.48698 0.489583 2.8776 0.320312 3.32031 0.320312H16.6797C17.1224 0.320312 17.5 0.489583 17.8125 0.828125C18.151 1.16667 18.3203 1.55729 18.3203 2V10.3203C18.3203 10.763 18.151 11.1536 17.8125 11.4922C17.5 11.8307 17.1224 12 16.6797 12Z" fill="#908E8E"/>
</svg>
