<svg width="43" height="42" viewBox="0 0 43 42" fill="none" xmlns="http://www.w3.org/2000/svg">
<path d="M42.1873 15.1041C42.1873 7.04159 35.6665 0.520752 27.604 0.520752C19.5415 0.520752 13.0207 7.04159 13.0207 15.1041C13.0207 22.3333 18.2707 28.3124 25.1665 29.4583V37.6666H8.49984V31.4166H10.5832V23.0833C10.5832 21.9374 9.64567 20.9999 8.49984 20.9999H2.24984C1.104 20.9999 0.166504 21.9374 0.166504 23.0833V31.4166H2.24984V41.8333H35.5832V37.6666H29.3332V29.5833C36.5623 28.7291 42.1873 22.5833 42.1873 15.1041ZM5.37484 18.9166C7.104 18.9166 8.49984 17.5208 8.49984 15.7916C8.49984 14.0624 7.104 12.6666 5.37484 12.6666C3.64567 12.6666 2.24984 14.0624 2.24984 15.7916C2.24984 17.5208 3.64567 18.9166 5.37484 18.9166Z" fill="#1C1715"/>
</svg>
