<svg width="20" height="12" viewBox="0 0 20 12" fill="none" xmlns="http://www.w3.org/2000/svg">
<path d="M15 0.179688C15.4427 0.179688 15.8333 0.348958 16.1719 0.6875C16.5104 1 16.6797 1.3776 16.6797 1.82031V3.61719C16.1849 3.79948 15.7812 4.09896 15.4688 4.51562C15.1562 4.93229 15 5.41406 15 5.96094V7.67969H5V5.96094C5 5.41406 4.84375 4.93229 4.53125 4.51562C4.21875 4.09896 3.8151 3.79948 3.32031 3.61719V1.82031C3.32031 1.3776 3.48958 1 3.82812 0.6875C4.16667 0.348958 4.55729 0.179688 5 0.179688H15ZM16.3281 4.82812C16.6667 4.48958 17.0573 4.32031 17.5 4.32031C17.9427 4.32031 18.3333 4.48958 18.6719 4.82812C19.0104 5.16667 19.1797 5.55729 19.1797 6V10.1797C19.1797 10.6224 19.0104 11.013 18.6719 11.3516C18.3333 11.6641 17.9427 11.8203 17.5 11.8203H2.5C2.05729 11.8203 1.66667 11.6641 1.32812 11.3516C0.989583 11.013 0.820312 10.6224 0.820312 10.1797V6C0.820312 5.55729 0.989583 5.16667 1.32812 4.82812C1.66667 4.48958 2.05729 4.32031 2.5 4.32031C2.94271 4.32031 3.33333 4.48958 3.67188 4.82812C4.01042 5.16667 4.17969 5.55729 4.17969 6V8.5H15.8203V6C15.8203 5.55729 15.9896 5.16667 16.3281 4.82812Z" fill="#908E8E"/>
</svg>
