<svg width="14" height="18" viewBox="0 0 14 18" fill="none" xmlns="http://www.w3.org/2000/svg">
<path d="M3.44531 14.2344C4.4349 15.1979 5.61979 15.6797 7 15.6797C8.38021 15.6797 9.55208 15.1979 10.5156 14.2344C11.5052 13.2448 12 12.0599 12 10.6797C12 9.29948 11.5052 8.1276 10.5156 7.16406C9.55208 6.17448 8.38021 5.67969 7 5.67969C5.61979 5.67969 4.4349 6.17448 3.44531 7.16406C2.48177 8.1276 2 9.29948 2 10.6797C2 12.0599 2.48177 13.2448 3.44531 14.2344ZM3.40625 2.59375C3.25 2.41146 3.05469 2.32031 2.82031 2.32031C2.58594 2.32031 2.39062 2.41146 2.23438 2.59375C2.07812 2.75 2 2.94531 2 3.17969C2 3.41406 2.07812 3.60938 2.23438 3.76562C2.39062 3.92188 2.58594 4 2.82031 4C3.05469 4 3.25 3.92188 3.40625 3.76562C3.58854 3.60938 3.67969 3.41406 3.67969 3.17969C3.67969 2.94531 3.58854 2.75 3.40625 2.59375ZM5.90625 2.59375C5.75 2.41146 5.55469 2.32031 5.32031 2.32031C5.08594 2.32031 4.89062 2.41146 4.73438 2.59375C4.57812 2.75 4.5 2.94531 4.5 3.17969C4.5 3.41406 4.57812 3.60938 4.73438 3.76562C4.89062 3.92188 5.08594 4 5.32031 4C5.55469 4 5.75 3.92188 5.90625 3.76562C6.08854 3.60938 6.17969 3.41406 6.17969 3.17969C6.17969 2.94531 6.08854 2.75 5.90625 2.59375ZM12 0.679688C12.4688 0.679688 12.8594 0.835938 13.1719 1.14844C13.5104 1.46094 13.6797 1.85156 13.6797 2.32031V15.6797C13.6797 16.1484 13.5104 16.5391 13.1719 16.8516C12.8594 17.1641 12.4688 17.3203 12 17.3203H2C1.53125 17.3203 1.1276 17.1641 0.789062 16.8516C0.476562 16.5391 0.320312 16.1484 0.320312 15.6797V2.32031C0.320312 1.85156 0.476562 1.46094 0.789062 1.14844C1.1276 0.835938 1.53125 0.679688 2 0.679688H12ZM4.65625 13.0234L9.34375 8.29688C9.99479 8.94792 10.3203 9.74219 10.3203 10.6797C10.3203 11.5911 9.99479 12.3724 9.34375 13.0234C8.69271 13.6745 7.91146 14 7 14C6.08854 14 5.30729 13.6745 4.65625 13.0234Z" fill="#908E8E"/>
</svg>
