<svg width="16" height="18" viewBox="0 0 16 18" fill="none" xmlns="http://www.w3.org/2000/svg">
<path d="M6.82812 10.9922C7.16667 11.3307 7.55729 11.5 8 11.5C8.44271 11.5 8.83333 11.3307 9.17188 10.9922C9.51042 10.6536 9.67969 10.263 9.67969 9.82031C9.67969 9.3776 9.51042 9 9.17188 8.6875C8.83333 8.34896 8.44271 8.17969 8 8.17969C7.55729 8.17969 7.16667 8.34896 6.82812 8.6875C6.48958 9 6.32031 9.3776 6.32031 9.82031C6.32031 10.263 6.48958 10.6536 6.82812 10.9922ZM4.32812 3.6875C3.98958 4 3.82031 4.3776 3.82031 4.82031C3.82031 5.26302 3.98958 5.65365 4.32812 5.99219C4.66667 6.33073 5.05729 6.5 5.5 6.5C5.94271 6.5 6.33333 6.33073 6.67188 5.99219C7.01042 5.65365 7.17969 5.26302 7.17969 4.82031C7.17969 4.3776 7.01042 4 6.67188 3.6875C6.33333 3.34896 5.94271 3.17969 5.5 3.17969C5.05729 3.17969 4.66667 3.34896 4.32812 3.6875ZM0.5 4C2.50521 1.78646 5.00521 0.679688 8 0.679688C10.9948 0.679688 13.4948 1.78646 15.5 4L8 17.3203L0.5 4Z" fill="#1C1715"/>
</svg>
