<svg width="18" height="12" viewBox="0 0 18 12" fill="none" xmlns="http://www.w3.org/2000/svg">
<path d="M6.5 6.82031C7.07292 6.82031 7.73698 6.89844 8.49219 7.05469C7.16406 7.78385 6.5 8.7474 6.5 9.94531V11.8203H0.679688V9.75C0.679688 9.15104 1.03125 8.61719 1.73438 8.14844C2.46354 7.67969 3.25781 7.34115 4.11719 7.13281C4.97656 6.92448 5.77083 6.82031 6.5 6.82031ZM9.74219 8.30469C10.7839 7.88802 11.7865 7.67969 12.75 7.67969C13.7135 7.67969 14.7161 7.88802 15.7578 8.30469C16.7995 8.72135 17.3203 9.26823 17.3203 9.94531V11.8203H8.17969V9.94531C8.17969 9.26823 8.70052 8.72135 9.74219 8.30469ZM8.25781 4.4375C7.76302 4.93229 7.17708 5.17969 6.5 5.17969C5.82292 5.17969 5.23698 4.93229 4.74219 4.4375C4.2474 3.94271 4 3.35677 4 2.67969C4 2.0026 4.2474 1.41667 4.74219 0.921875C5.23698 0.427083 5.82292 0.179688 6.5 0.179688C7.17708 0.179688 7.76302 0.427083 8.25781 0.921875C8.7526 1.41667 9 2.0026 9 2.67969C9 3.35677 8.7526 3.94271 8.25781 4.4375ZM14.1953 5.41406C13.8047 5.80469 13.3229 6 12.75 6C12.1771 6 11.6823 5.80469 11.2656 5.41406C10.875 4.9974 10.6797 4.5026 10.6797 3.92969C10.6797 3.35677 10.875 2.86198 11.2656 2.44531C11.6823 2.02865 12.1771 1.82031 12.75 1.82031C13.3229 1.82031 13.8047 2.02865 14.1953 2.44531C14.612 2.86198 14.8203 3.35677 14.8203 3.92969C14.8203 4.5026 14.612 4.9974 14.1953 5.41406Z" fill="#1C1715"/>
</svg>
