<svg width="16" height="16" viewBox="0 0 16 16" fill="none" xmlns="http://www.w3.org/2000/svg">
<path d="M10.8516 5.14844C11.0859 5.38281 11.3854 5.5 11.75 5.5C12.1146 5.5 12.4141 5.38281 12.6484 5.14844C12.8828 4.91406 13 4.61458 13 4.25C13 3.88542 12.8828 3.58594 12.6484 3.35156C12.4141 3.11719 12.1146 3 11.75 3C11.3854 3 11.0859 3.11719 10.8516 3.35156C10.6172 3.58594 10.5 3.88542 10.5 4.25C10.5 4.61458 10.6172 4.91406 10.8516 5.14844ZM10.8516 12.6484C11.0859 12.8828 11.3854 13 11.75 13C12.1146 13 12.4141 12.8828 12.6484 12.6484C12.8828 12.4141 13 12.1146 13 11.75C13 11.3854 12.8828 11.0859 12.6484 10.8516C12.4141 10.6172 12.1146 10.5 11.75 10.5C11.3854 10.5 11.0859 10.6172 10.8516 10.8516C10.6172 11.0859 10.5 11.3854 10.5 11.75C10.5 12.1146 10.6172 12.4141 10.8516 12.6484ZM7.10156 8.89844C7.33594 9.13281 7.63542 9.25 8 9.25C8.36458 9.25 8.66406 9.13281 8.89844 8.89844C9.13281 8.66406 9.25 8.36458 9.25 8C9.25 7.63542 9.13281 7.33594 8.89844 7.10156C8.66406 6.86719 8.36458 6.75 8 6.75C7.63542 6.75 7.33594 6.86719 7.10156 7.10156C6.86719 7.33594 6.75 7.63542 6.75 8C6.75 8.36458 6.86719 8.66406 7.10156 8.89844ZM3.35156 5.14844C3.58594 5.38281 3.88542 5.5 4.25 5.5C4.61458 5.5 4.91406 5.38281 5.14844 5.14844C5.38281 4.91406 5.5 4.61458 5.5 4.25C5.5 3.88542 5.38281 3.58594 5.14844 3.35156C4.91406 3.11719 4.61458 3 4.25 3C3.88542 3 3.58594 3.11719 3.35156 3.35156C3.11719 3.58594 3 3.88542 3 4.25C3 4.61458 3.11719 4.91406 3.35156 5.14844ZM3.35156 12.6484C3.58594 12.8828 3.88542 13 4.25 13C4.61458 13 4.91406 12.8828 5.14844 12.6484C5.38281 12.4141 5.5 12.1146 5.5 11.75C5.5 11.3854 5.38281 11.0859 5.14844 10.8516C4.91406 10.6172 4.61458 10.5 4.25 10.5C3.88542 10.5 3.58594 10.6172 3.35156 10.8516C3.11719 11.0859 3 11.3854 3 11.75C3 12.1146 3.11719 12.4141 3.35156 12.6484ZM13.8203 0.5C14.263 0.5 14.6536 0.669271 14.9922 1.00781C15.3307 1.34635 15.5 1.73698 15.5 2.17969V13.8203C15.5 14.263 15.3307 14.6536 14.9922 14.9922C14.6536 15.3307 14.263 15.5 13.8203 15.5H2.17969C1.73698 15.5 1.34635 15.3307 1.00781 14.9922C0.669271 14.6536 0.5 14.263 0.5 13.8203V2.17969C0.5 1.73698 0.669271 1.34635 1.00781 1.00781C1.34635 0.669271 1.73698 0.5 2.17969 0.5H13.8203Z" fill="#1C1715"/>
</svg>
