<svg width="16" height="16" viewBox="0 0 16 16" fill="none" xmlns="http://www.w3.org/2000/svg">
<path d="M12.4922 5.34375C11.1901 4.04167 9.67969 3.18229 7.96094 2.76562C6.26823 2.34896 4.61458 2.41406 3 2.96094C4.25 2.80469 5.61719 3.05208 7.10156 3.70312C8.61198 4.32812 10.0052 5.27865 11.2812 6.55469L6.51562 11.3203C5.23958 10.0443 4.27604 8.66406 3.625 7.17969C3 5.66927 2.76562 4.28906 2.92188 3.03906C2.375 4.65365 2.3099 6.32031 2.72656 8.03906C3.14323 9.73177 4.0026 11.2292 5.30469 12.5312L2.92188 14.9141C1.28125 13.2734 0.460938 11.2943 0.460938 8.97656C0.460938 6.63281 1.28125 4.64062 2.92188 3C2.92188 2.97396 2.9349 2.96094 2.96094 2.96094C4.78385 1.13802 6.97135 0.330729 9.52344 0.539062C11.6328 0.695312 13.4167 1.5026 14.875 2.96094L12.4922 5.34375ZM8.89844 10.1484L10.1094 8.9375L15.4609 14.3281L14.25 15.5L8.89844 10.1484Z" fill="#1C1715"/>
</svg>
