<svg width="20" height="18" viewBox="0 0 20 18" fill="none" xmlns="http://www.w3.org/2000/svg">
<path d="M17.5 12.3203V2.32031H2.5V12.3203H17.5ZM17.5 0.679688C17.9427 0.679688 18.3333 0.848958 18.6719 1.1875C19.0104 1.5 19.1797 1.8776 19.1797 2.32031V12.3203C19.1797 12.763 19.0104 13.1536 18.6719 13.4922C18.3333 13.8307 17.9427 14 17.5 14H11.6797V15.6797H13.3203V17.3203H6.67969V15.6797H8.32031V14H2.5C2.05729 14 1.66667 13.8307 1.32812 13.4922C0.989583 13.1536 0.820312 12.763 0.820312 12.3203V2.32031C0.820312 1.8776 0.989583 1.5 1.32812 1.1875C1.66667 0.848958 2.05729 0.679688 2.5 0.679688H17.5Z" fill="#1C1715"/>
</svg>
